<svg xmlns="http://www.w3.org/2000/svg" viewBox="0 0 1440 600" width="1440" height="600" font-family="system-ui, -apple-system, sans-serif">
  <defs>
    <!-- Gradients -->
    <linearGradient id="skyGrad" x1="0" y1="0" x2="0" y2="1">
      <stop offset="0%" stop-color="#0a0920"/>
      <stop offset="40%" stop-color="#0f0e17"/>
      <stop offset="100%" stop-color="#1a1530"/>
    </linearGradient>
    <linearGradient id="streetGrad" x1="0" y1="0" x2="0" y2="1">
      <stop offset="0%" stop-color="#1a1530"/>
      <stop offset="100%" stop-color="#0d0c14"/>
    </linearGradient>
    <radialGradient id="lampGlow1" cx="50%" cy="50%" r="50%">
      <stop offset="0%" stop-color="#ffb347" stop-opacity="0.6"/>
      <stop offset="100%" stop-color="#ffb347" stop-opacity="0"/>
    </radialGradient>
    <radialGradient id="lampGlow2" cx="50%" cy="50%" r="50%">
      <stop offset="0%" stop-color="#ffa726" stop-opacity="0.4"/>
      <stop offset="100%" stop-color="#ffa726" stop-opacity="0"/>
    </radialGradient>
    <radialGradient id="warmCenter" cx="50%" cy="80%" r="60%">
      <stop offset="0%" stop-color="#ffb347" stop-opacity="0.08"/>
      <stop offset="100%" stop-color="#ffb347" stop-opacity="0"/>
    </radialGradient>
    <!-- Red glow for English-only signs -->
    <filter id="redGlow" x="-30%" y="-30%" width="160%" height="160%">
      <feGaussianBlur stdDeviation="6" result="blur"/>
      <feFlood flood-color="#ff4444" flood-opacity="0.5" result="color"/>
      <feComposite in="color" in2="blur" operator="in" result="glow"/>
      <feMerge><feMergeNode in="glow"/><feMergeNode in="glow"/><feMergeNode in="SourceGraphic"/></feMerge>
    </filter>
    <!-- Green glow for bilingual signs -->
    <filter id="greenGlow" x="-30%" y="-30%" width="160%" height="160%">
      <feGaussianBlur stdDeviation="6" result="blur"/>
      <feFlood flood-color="#00e676" flood-opacity="0.45" result="color"/>
      <feComposite in="color" in2="blur" operator="in" result="glow"/>
      <feMerge><feMergeNode in="glow"/><feMergeNode in="glow"/><feMergeNode in="SourceGraphic"/></feMerge>
    </filter>
    <!-- Badge glow -->
    <filter id="badgeGlow" x="-20%" y="-20%" width="140%" height="140%">
      <feGaussianBlur stdDeviation="4" result="blur"/>
      <feFlood flood-color="#7c4dff" flood-opacity="0.4" result="color"/>
      <feComposite in="color" in2="blur" operator="in" result="glow"/>
      <feMerge><feMergeNode in="glow"/><feMergeNode in="SourceGraphic"/></feMerge>
    </filter>
    <!-- Soft lamp filter -->
    <filter id="softLight">
      <feGaussianBlur stdDeviation="3"/>
    </filter>
    <!-- Star twinkle -->
    <filter id="starGlow">
      <feGaussianBlur stdDeviation="1.5"/>
    </filter>
  </defs>

  <!-- Sky background -->
  <rect width="1440" height="600" fill="url(#skyGrad)"/>
  <!-- Warm ambient light from center -->
  <rect width="1440" height="600" fill="url(#warmCenter)"/>

  <!-- Stars -->
  <g opacity="0.6">
    <circle cx="120" cy="35" r="1.2" fill="#fff" filter="url(#starGlow)"/>
    <circle cx="280" cy="55" r="0.8" fill="#fff" filter="url(#starGlow)"/>
    <circle cx="450" cy="25" r="1" fill="#fff" filter="url(#starGlow)"/>
    <circle cx="680" cy="45" r="1.3" fill="#fff" filter="url(#starGlow)"/>
    <circle cx="900" cy="30" r="0.9" fill="#fff" filter="url(#starGlow)"/>
    <circle cx="1050" cy="50" r="1.1" fill="#fff" filter="url(#starGlow)"/>
    <circle cx="1200" cy="35" r="0.7" fill="#fff" filter="url(#starGlow)"/>
    <circle cx="1350" cy="60" r="1" fill="#fff" filter="url(#starGlow)"/>
    <circle cx="200" cy="70" r="0.6" fill="#fff" filter="url(#starGlow)"/>
    <circle cx="780" cy="20" r="0.8" fill="#fff" filter="url(#starGlow)"/>
    <circle cx="1100" cy="15" r="1" fill="#fff" filter="url(#starGlow)"/>
  </g>

  <!-- ===== Moscow Skyline Silhouette ===== -->
  <g opacity="0.3" fill="#2a2545">
    <!-- Kremlin Wall base -->
    <rect x="500" y="60" width="440" height="50" rx="2"/>
    <!-- Spasskaya Tower -->
    <rect x="600" y="30" width="40" height="80"/>
    <polygon points="600,30 620,5 640,30"/>
    <circle cx="620" cy="7" r="4" fill="#c62828" opacity="0.6"/>
    <!-- Kremlin dome 1 -->
    <rect x="680" y="40" width="30" height="70"/>
    <ellipse cx="695" cy="40" rx="18" ry="12"/>
    <path d="M695 28 L695 15" stroke="#2a2545" stroke-width="3"/>
    <circle cx="695" cy="13" r="4"/>
    <!-- Kremlin dome 2 -->
    <rect x="550" y="35" width="28" height="75"/>
    <ellipse cx="564" cy="35" rx="16" ry="11"/>
    <path d="M564 24 L564 12" stroke="#2a2545" stroke-width="3"/>
    <circle cx="564" cy="10" r="3.5"/>
    <!-- Cathedral of Christ the Saviour (left) -->
    <rect x="380" y="50" width="60" height="60"/>
    <ellipse cx="410" cy="50" rx="32" ry="22"/>
    <path d="M410 28 L410 10" stroke="#2a2545" stroke-width="4"/>
    <circle cx="410" cy="8" r="5"/>
    <!-- St Basil's onion domes (right) -->
    <rect x="770" y="55" width="20" height="55"/>
    <path d="M770 55 Q780 30 790 55" fill="#2a2545"/>
    <circle cx="780" cy="32" r="3"/>
    <rect x="800" y="45" width="18" height="65"/>
    <path d="M800 45 Q809 22 818 45" fill="#2a2545"/>
    <circle cx="809" cy="24" r="3"/>
    <rect x="828" y="50" width="16" height="60"/>
    <path d="M828 50 Q836 28 844 50" fill="#2a2545"/>
    <circle cx="836" cy="30" r="2.5"/>
    <!-- Moscow City towers (far right) -->
    <rect x="1000" y="30" width="18" height="80" rx="2"/>
    <rect x="1025" y="20" width="14" height="90" rx="2"/>
    <rect x="1046" y="35" width="16" height="75" rx="2"/>
    <rect x="1068" y="25" width="12" height="85" rx="1"/>
    <!-- Far left buildings -->
    <rect x="200" y="55" width="35" height="55" rx="1"/>
    <rect x="240" y="45" width="25" height="65" rx="1"/>
    <rect x="270" y="60" width="40" height="50" rx="1"/>
  </g>

  <!-- ===== LEFT SIDE BUILDINGS ===== -->
  <!-- Building L1 (closest, tallest) -->
  <g>
    <polygon points="0,130 320,180 320,600 0,600" fill="#16142a"/>
    <polygon points="0,130 320,180 320,600 0,600" fill="#1a1735" opacity="0.5"/>
    <!-- Windows -->
    <g fill="#1f1d3a" opacity="0.6">
      <rect x="30" y="200" width="25" height="35" rx="2"/>
      <rect x="70" y="210" width="25" height="35" rx="2"/>
      <rect x="110" y="220" width="25" height="35" rx="2"/>
      <rect x="30" y="260" width="25" height="35" rx="2"/>
      <rect x="70" y="270" width="25" height="35" rx="2"/>
      <rect x="110" y="280" width="25" height="35" rx="2"/>
      <rect x="150" y="290" width="25" height="35" rx="2"/>
      <rect x="30" y="320" width="25" height="35" rx="2"/>
      <rect x="70" y="330" width="25" height="35" rx="2"/>
      <rect x="110" y="340" width="25" height="35" rx="2"/>
      <rect x="150" y="350" width="25" height="35" rx="2"/>
      <rect x="190" y="360" width="25" height="35" rx="2"/>
    </g>
    <!-- Lit windows (warm) -->
    <g opacity="0.7">
      <rect x="30" y="260" width="25" height="35" rx="2" fill="#ffb347" opacity="0.15"/>
      <rect x="110" y="340" width="25" height="35" rx="2" fill="#ffb347" opacity="0.2"/>
      <rect x="70" y="210" width="25" height="35" rx="2" fill="#ffe0b2" opacity="0.12"/>
    </g>

    <!-- SIGN: "COFFEE SHOP" (English only — RED glow) -->
    <g filter="url(#redGlow)">
      <rect x="40" y="420" width="200" height="50" rx="6" fill="#1a0a0a" stroke="#ff4444" stroke-width="2"/>
      <text x="140" y="452" text-anchor="middle" fill="#ff4444" font-size="20" font-weight="700" letter-spacing="2">COFFEE SHOP</text>
    </g>
    <!-- Awning -->
    <path d="M35 418 L245 418 L250 410 L30 410 Z" fill="#2a1515" opacity="0.6"/>
    <!-- Door below sign -->
    <rect x="100" y="480" width="60" height="100" rx="3" fill="#0d0b18" stroke="#2a2545" stroke-width="1"/>
    <circle cx="150" cy="530" r="3" fill="#4a4570"/>
  </g>

  <!-- Building L2 (behind L1) -->
  <g>
    <polygon points="0,100 250,160 250,600 0,600" fill="#12102a" opacity="0.7"/>
  </g>

  <!-- ===== RIGHT SIDE BUILDINGS ===== -->
  <!-- Building R1 (closest, tallest) -->
  <g>
    <polygon points="1440,140 1100,190 1100,600 1440,600" fill="#18162e"/>
    <!-- Windows -->
    <g fill="#1f1d3a" opacity="0.6">
      <rect x="1380" y="210" width="25" height="35" rx="2"/>
      <rect x="1340" y="220" width="25" height="35" rx="2"/>
      <rect x="1300" y="230" width="25" height="35" rx="2"/>
      <rect x="1380" y="270" width="25" height="35" rx="2"/>
      <rect x="1340" y="280" width="25" height="35" rx="2"/>
      <rect x="1300" y="290" width="25" height="35" rx="2"/>
      <rect x="1260" y="300" width="25" height="35" rx="2"/>
      <rect x="1380" y="330" width="25" height="35" rx="2"/>
      <rect x="1340" y="340" width="25" height="35" rx="2"/>
      <rect x="1300" y="350" width="25" height="35" rx="2"/>
      <rect x="1260" y="360" width="25" height="35" rx="2"/>
      <rect x="1220" y="370" width="25" height="35" rx="2"/>
    </g>
    <!-- Lit windows -->
    <g opacity="0.7">
      <rect x="1380" y="270" width="25" height="35" rx="2" fill="#ffb347" opacity="0.18"/>
      <rect x="1300" y="350" width="25" height="35" rx="2" fill="#ffe0b2" opacity="0.15"/>
      <rect x="1340" y="220" width="25" height="35" rx="2" fill="#ffb347" opacity="0.1"/>
    </g>

    <!-- SIGN: "BEAUTY STUDIO" (English only — RED glow) -->
    <g filter="url(#redGlow)">
      <rect x="1180" y="410" width="220" height="50" rx="6" fill="#1a0a0a" stroke="#ff4444" stroke-width="2"/>
      <text x="1290" y="442" text-anchor="middle" fill="#ff4444" font-size="19" font-weight="700" letter-spacing="2">BEAUTY STUDIO</text>
    </g>
    <path d="M1175 408 L1405 408 L1410 400 L1170 400 Z" fill="#2a1515" opacity="0.6"/>
    <!-- Door -->
    <rect x="1260" y="470" width="55" height="110" rx="3" fill="#0d0b18" stroke="#2a2545" stroke-width="1"/>
    <circle cx="1305" cy="525" r="3" fill="#4a4570"/>
  </g>

  <!-- Building R2 (further back) -->
  <g>
    <polygon points="1440,110 1180,155 1180,600 1440,600" fill="#14122c" opacity="0.6"/>
  </g>

  <!-- ===== CENTER BUILDINGS (perspective vanishing point) ===== -->
  <!-- Center-left building -->
  <g>
    <rect x="370" y="170" width="200" height="430" fill="#1c1a35" rx="3"/>
    <!-- Windows -->
    <g fill="#232148" opacity="0.5">
      <rect x="385" y="195" width="22" height="30" rx="2"/>
      <rect x="420" y="195" width="22" height="30" rx="2"/>
      <rect x="455" y="195" width="22" height="30" rx="2"/>
      <rect x="490" y="195" width="22" height="30" rx="2"/>
      <rect x="525" y="195" width="22" height="30" rx="2"/>
      <rect x="385" y="240" width="22" height="30" rx="2"/>
      <rect x="420" y="240" width="22" height="30" rx="2"/>
      <rect x="455" y="240" width="22" height="30" rx="2"/>
      <rect x="490" y="240" width="22" height="30" rx="2"/>
      <rect x="525" y="240" width="22" height="30" rx="2"/>
      <rect x="385" y="285" width="22" height="30" rx="2"/>
      <rect x="420" y="285" width="22" height="30" rx="2"/>
      <rect x="455" y="285" width="22" height="30" rx="2"/>
      <rect x="490" y="285" width="22" height="30" rx="2"/>
      <rect x="525" y="285" width="22" height="30" rx="2"/>
    </g>
    <!-- Lit windows -->
    <rect x="420" y="240" width="22" height="30" rx="2" fill="#ffb347" opacity="0.2"/>
    <rect x="490" y="285" width="22" height="30" rx="2" fill="#ffe0b2" opacity="0.15"/>
    <rect x="385" y="195" width="22" height="30" rx="2" fill="#ffb347" opacity="0.12"/>

    <!-- SIGN: "Пекарня / Bakery" (bilingual — GREEN glow) -->
    <g filter="url(#greenGlow)">
      <rect x="380" y="340" width="185" height="55" rx="6" fill="#0a1a0a" stroke="#00e676" stroke-width="2"/>
      <text x="472" y="363" text-anchor="middle" fill="#00e676" font-size="15" font-weight="700">Пекарня</text>
      <text x="472" y="383" text-anchor="middle" fill="#00e676" font-size="12" opacity="0.7">Bakery</text>
    </g>
    <!-- Bakery door -->
    <rect x="430" y="410" width="50" height="90" rx="3" fill="#0d0b18" stroke="#2a4530" stroke-width="1"/>
    <circle cx="470" cy="455" r="3" fill="#4a7050"/>
    <!-- Bread display in window -->
    <rect x="385" y="415" width="35" height="40" rx="2" fill="#1a1735" stroke="#2a4530" stroke-width="0.5"/>
    <ellipse cx="402" cy="435" rx="8" ry="6" fill="#3a2a15" opacity="0.5"/>
  </g>

  <!-- Center-right building -->
  <g>
    <rect x="600" y="160" width="220" height="440" fill="#1e1c38" rx="3"/>
    <!-- Windows -->
    <g fill="#252350" opacity="0.5">
      <rect x="615" y="185" width="22" height="30" rx="2"/>
      <rect x="650" y="185" width="22" height="30" rx="2"/>
      <rect x="685" y="185" width="22" height="30" rx="2"/>
      <rect x="720" y="185" width="22" height="30" rx="2"/>
      <rect x="755" y="185" width="22" height="30" rx="2"/>
      <rect x="790" y="185" width="22" height="30" rx="2"/>
      <rect x="615" y="230" width="22" height="30" rx="2"/>
      <rect x="650" y="230" width="22" height="30" rx="2"/>
      <rect x="685" y="230" width="22" height="30" rx="2"/>
      <rect x="720" y="230" width="22" height="30" rx="2"/>
      <rect x="755" y="230" width="22" height="30" rx="2"/>
      <rect x="790" y="230" width="22" height="30" rx="2"/>
      <rect x="615" y="275" width="22" height="30" rx="2"/>
      <rect x="650" y="275" width="22" height="30" rx="2"/>
      <rect x="685" y="275" width="22" height="30" rx="2"/>
      <rect x="720" y="275" width="22" height="30" rx="2"/>
      <rect x="755" y="275" width="22" height="30" rx="2"/>
      <rect x="790" y="275" width="22" height="30" rx="2"/>
    </g>
    <!-- Lit windows -->
    <rect x="685" y="230" width="22" height="30" rx="2" fill="#ffb347" opacity="0.18"/>
    <rect x="755" y="275" width="22" height="30" rx="2" fill="#ffe0b2" opacity="0.14"/>
    <rect x="615" y="275" width="22" height="30" rx="2" fill="#ffb347" opacity="0.1"/>

    <!-- SIGN: "Книжный магазин" (Russian — GREEN glow) -->
    <g filter="url(#greenGlow)">
      <rect x="610" y="330" width="200" height="55" rx="6" fill="#0a1a0a" stroke="#00e676" stroke-width="2"/>
      <text x="710" y="355" text-anchor="middle" fill="#00e676" font-size="14" font-weight="700">Книжный магазин</text>
      <text x="710" y="373" text-anchor="middle" fill="#00e676" font-size="11" opacity="0.7">Bookstore</text>
    </g>
    <!-- Bookstore window -->
    <rect x="630" y="400" width="70" height="50" rx="3" fill="#1a1735" stroke="#2a4530" stroke-width="0.5"/>
    <!-- Books on display -->
    <rect x="640" y="415" width="8" height="25" rx="1" fill="#3a2a4a" opacity="0.5"/>
    <rect x="652" y="418" width="8" height="22" rx="1" fill="#2a3a4a" opacity="0.5"/>
    <rect x="664" y="412" width="8" height="28" rx="1" fill="#4a2a3a" opacity="0.5"/>
    <rect x="676" y="416" width="8" height="24" rx="1" fill="#2a4a3a" opacity="0.5"/>
    <!-- Door -->
    <rect x="720" y="400" width="45" height="90" rx="3" fill="#0d0b18" stroke="#2a4530" stroke-width="1"/>
    <circle cx="755" cy="445" r="3" fill="#4a7050"/>
  </g>

  <!-- Far center building -->
  <g>
    <rect x="850" y="175" width="180" height="425" fill="#1a1835" rx="3"/>
    <g fill="#222045" opacity="0.45">
      <rect x="865" y="200" width="20" height="28" rx="2"/>
      <rect x="895" y="200" width="20" height="28" rx="2"/>
      <rect x="925" y="200" width="20" height="28" rx="2"/>
      <rect x="955" y="200" width="20" height="28" rx="2"/>
      <rect x="985" y="200" width="20" height="28" rx="2"/>
      <rect x="865" y="242" width="20" height="28" rx="2"/>
      <rect x="895" y="242" width="20" height="28" rx="2"/>
      <rect x="925" y="242" width="20" height="28" rx="2"/>
      <rect x="955" y="242" width="20" height="28" rx="2"/>
      <rect x="985" y="242" width="20" height="28" rx="2"/>
      <rect x="865" y="284" width="20" height="28" rx="2"/>
      <rect x="895" y="284" width="20" height="28" rx="2"/>
      <rect x="925" y="284" width="20" height="28" rx="2"/>
      <rect x="955" y="284" width="20" height="28" rx="2"/>
      <rect x="985" y="284" width="20" height="28" rx="2"/>
    </g>
    <rect x="925" y="242" width="20" height="28" rx="2" fill="#ffb347" opacity="0.15"/>

    <!-- SIGN: "NAIL BAR" (English only — RED glow) -->
    <g filter="url(#redGlow)">
      <rect x="860" y="335" width="160" height="45" rx="6" fill="#1a0a0a" stroke="#ff4444" stroke-width="2"/>
      <text x="940" y="364" text-anchor="middle" fill="#ff4444" font-size="18" font-weight="700" letter-spacing="2">NAIL BAR</text>
    </g>
    <rect x="900" y="395" width="40" height="80" rx="3" fill="#0d0b18" stroke="#2a2030" stroke-width="1"/>
    <circle cx="930" cy="435" r="2.5" fill="#5a3040"/>
  </g>

  <!-- ===== STREET / ROAD ===== -->
  <rect x="0" y="500" width="1440" height="100" fill="url(#streetGrad)" rx="0"/>
  <!-- Street line markings -->
  <g stroke="#3a3860" stroke-width="2" stroke-dasharray="30 20" opacity="0.4">
    <line x1="400" y1="560" x2="1040" y2="560"/>
  </g>
  <!-- Sidewalk left -->
  <rect x="0" y="490" width="380" height="10" fill="#252345" opacity="0.5"/>
  <!-- Sidewalk right -->
  <rect x="1060" y="490" width="380" height="10" fill="#252345" opacity="0.5"/>

  <!-- ===== STREET LAMPS ===== -->
  <!-- Lamp 1 (left) -->
  <g>
    <rect x="335" y="300" width="6" height="200" fill="#2a2545" rx="2"/>
    <path d="M325 300 Q338 280 351 300" fill="#2a2545"/>
    <ellipse cx="338" cy="295" rx="18" ry="10" fill="#ffb347" opacity="0.15"/>
    <circle cx="338" cy="298" r="6" fill="#ffb347" opacity="0.8"/>
    <circle cx="338" cy="298" r="35" fill="url(#lampGlow1)" opacity="0.6"/>
    <circle cx="338" cy="298" r="70" fill="url(#lampGlow2)" opacity="0.3"/>
  </g>
  <!-- Lamp 2 (center-left) -->
  <g>
    <rect x="567" y="340" width="5" height="160" fill="#2a2545" rx="2"/>
    <path d="M558 340 Q570 322 581 340" fill="#2a2545"/>
    <circle cx="570" cy="338" r="5" fill="#ffb347" opacity="0.75"/>
    <circle cx="570" cy="338" r="30" fill="url(#lampGlow1)" opacity="0.5"/>
    <circle cx="570" cy="338" r="60" fill="url(#lampGlow2)" opacity="0.25"/>
  </g>
  <!-- Lamp 3 (center-right) -->
  <g>
    <rect x="837" y="350" width="5" height="150" fill="#2a2545" rx="2"/>
    <path d="M828 350 Q840 332 851 350" fill="#2a2545"/>
    <circle cx="840" cy="348" r="5" fill="#ffb347" opacity="0.75"/>
    <circle cx="840" cy="348" r="30" fill="url(#lampGlow1)" opacity="0.5"/>
    <circle cx="840" cy="348" r="60" fill="url(#lampGlow2)" opacity="0.25"/>
  </g>
  <!-- Lamp 4 (right) -->
  <g>
    <rect x="1067" y="310" width="6" height="190" fill="#2a2545" rx="2"/>
    <path d="M1057 310 Q1070 292 1083 310" fill="#2a2545"/>
    <circle cx="1070" cy="308" r="6" fill="#ffb347" opacity="0.8"/>
    <circle cx="1070" cy="308" r="35" fill="url(#lampGlow1)" opacity="0.6"/>
    <circle cx="1070" cy="308" r="70" fill="url(#lampGlow2)" opacity="0.3"/>
  </g>

  <!-- ===== PEDESTRIAN SILHOUETTES ===== -->
  <!-- Person 1 walking left side -->
  <g fill="#1a1735" opacity="0.5">
    <circle cx="300" cy="460" r="8"/>
    <rect x="294" y="468" width="12" height="22" rx="4"/>
    <line x1="296" y1="490" x2="290" y2="510" stroke="#1a1735" stroke-width="3" stroke-linecap="round"/>
    <line x1="304" y1="490" x2="310" y2="510" stroke="#1a1735" stroke-width="3" stroke-linecap="round"/>
  </g>
  <!-- Person 2 walking right side -->
  <g fill="#1a1735" opacity="0.45">
    <circle cx="1100" cy="462" r="7"/>
    <rect x="1095" y="469" width="10" height="20" rx="3"/>
    <line x1="1097" y1="489" x2="1092" y2="507" stroke="#1a1735" stroke-width="2.5" stroke-linecap="round"/>
    <line x1="1103" y1="489" x2="1108" y2="507" stroke="#1a1735" stroke-width="2.5" stroke-linecap="round"/>
  </g>
  <!-- Person 3 center -->
  <g fill="#1c1a38" opacity="0.35">
    <circle cx="720" cy="470" r="6"/>
    <rect x="716" y="476" width="8" height="16" rx="3"/>
    <line x1="717" y1="492" x2="714" y2="505" stroke="#1c1a38" stroke-width="2" stroke-linecap="round"/>
    <line x1="723" y1="492" x2="726" y2="505" stroke="#1c1a38" stroke-width="2" stroke-linecap="round"/>
  </g>

  <!-- ===== TOP BADGE: "168-ФЗ в Москве" ===== -->
  <g filter="url(#badgeGlow)">
    <rect x="590" y="115" width="260" height="42" rx="21" fill="#1a1040" stroke="#7c4dff" stroke-width="1.5"/>
    <text x="720" y="142" text-anchor="middle" fill="#b388ff" font-size="18" font-weight="700" letter-spacing="1">168-ФЗ в Москве</text>
  </g>

  <!-- ===== FLOATING STAT BADGE LEFT ===== -->
  <g>
    <!-- Card -->
    <rect x="30" y="150" width="250" height="70" rx="12" fill="#1a1040" stroke="#7c4dff" stroke-width="1" opacity="0.9"/>
    <!-- Icon -->
    <circle cx="60" cy="185" r="14" fill="#7c4dff" opacity="0.2"/>
    <text x="60" y="191" text-anchor="middle" fill="#b388ff" font-size="16">&#x1F50D;</text>
    <!-- Text -->
    <text x="85" y="179" fill="#e0e0e0" font-size="13" font-weight="700">15 000+ вывесок</text>
    <text x="85" y="198" fill="#9e9e9e" font-size="11">под проверку</text>
    <!-- Dashed connection line -->
    <line x1="280" y1="185" x2="370" y2="250" stroke="#7c4dff" stroke-width="1" stroke-dasharray="4 4" opacity="0.4"/>
  </g>

  <!-- ===== FLOATING STAT BADGE RIGHT ===== -->
  <g>
    <rect x="1160" y="155" width="240" height="70" rx="12" fill="#1a1040" stroke="#7c4dff" stroke-width="1" opacity="0.9"/>
    <circle cx="1190" cy="190" r="14" fill="#7c4dff" opacity="0.2"/>
    <text x="1190" y="196" text-anchor="middle" fill="#b388ff" font-size="16">&#x1F3AF;</text>
    <text x="1215" y="184" fill="#e0e0e0" font-size="13" font-weight="700">Центр &#x2192; приоритет</text>
    <text x="1215" y="203" fill="#9e9e9e" font-size="11">максимальный контроль</text>
    <!-- Dashed connection line -->
    <line x1="1160" y1="190" x2="1060" y2="260" stroke="#7c4dff" stroke-width="1" stroke-dasharray="4 4" opacity="0.4"/>
  </g>

  <!-- ===== LEGEND (bottom center) ===== -->
  <g>
    <rect x="540" y="530" width="360" height="50" rx="10" fill="#0f0e17" stroke="#2a2545" stroke-width="1" opacity="0.85"/>
    <!-- Red dot + label -->
    <circle cx="570" cy="555" r="6" fill="#ff4444" opacity="0.8"/>
    <text x="585" y="560" fill="#bdbdbd" font-size="12">Только на английском</text>
    <!-- Green dot + label -->
    <circle cx="740" cy="555" r="6" fill="#00e676" opacity="0.8"/>
    <text x="755" y="560" fill="#bdbdbd" font-size="12">Дублирование на русский</text>
  </g>
</svg>