<svg xmlns="http://www.w3.org/2000/svg" viewBox="0 0 1440 600" width="1440" height="600" font-family="system-ui, -apple-system, sans-serif">
  <defs>
    <!-- Background gradient -->
    <linearGradient id="bgGrad" x1="0" y1="0" x2="1" y2="1">
      <stop offset="0%" stop-color="#0a0e1a"/>
      <stop offset="50%" stop-color="#0f1225"/>
      <stop offset="100%" stop-color="#0d0a1f"/>
    </linearGradient>
    <!-- Street gradient -->
    <linearGradient id="streetG" x1="0" y1="0" x2="0" y2="1">
      <stop offset="0%" stop-color="#151330"/>
      <stop offset="100%" stop-color="#0a0918"/>
    </linearGradient>
    <!-- Inspector body gradient -->
    <linearGradient id="coatGrad" x1="0" y1="0" x2="0" y2="1">
      <stop offset="0%" stop-color="#1a2540"/>
      <stop offset="100%" stop-color="#0f1828"/>
    </linearGradient>
    <!-- Tablet screen gradient -->
    <linearGradient id="screenGrad" x1="0" y1="0" x2="0" y2="1">
      <stop offset="0%" stop-color="#1a2a45"/>
      <stop offset="100%" stop-color="#0f1a30"/>
    </linearGradient>
    <!-- Red sign glow -->
    <filter id="redGlowS" x="-30%" y="-30%" width="160%" height="160%">
      <feGaussianBlur stdDeviation="8" result="blur"/>
      <feFlood flood-color="#ff4444" flood-opacity="0.5" result="color"/>
      <feComposite in="color" in2="blur" operator="in" result="glow"/>
      <feMerge><feMergeNode in="glow"/><feMergeNode in="glow"/><feMergeNode in="SourceGraphic"/></feMerge>
    </filter>
    <!-- Warning glow -->
    <filter id="warnGlow" x="-20%" y="-20%" width="140%" height="140%">
      <feGaussianBlur stdDeviation="5" result="blur"/>
      <feFlood flood-color="#ff9800" flood-opacity="0.4" result="color"/>
      <feComposite in="color" in2="blur" operator="in" result="glow"/>
      <feMerge><feMergeNode in="glow"/><feMergeNode in="SourceGraphic"/></feMerge>
    </filter>
    <!-- Card glow -->
    <filter id="cardGlow" x="-15%" y="-15%" width="130%" height="130%">
      <feGaussianBlur stdDeviation="3" result="blur"/>
      <feFlood flood-color="#536dfe" flood-opacity="0.3" result="color"/>
      <feComposite in="color" in2="blur" operator="in" result="glow"/>
      <feMerge><feMergeNode in="glow"/><feMergeNode in="SourceGraphic"/></feMerge>
    </filter>
    <!-- Ambient light -->
    <radialGradient id="ambientR" cx="65%" cy="60%" r="40%">
      <stop offset="0%" stop-color="#ff4444" stop-opacity="0.06"/>
      <stop offset="100%" stop-color="#ff4444" stop-opacity="0"/>
    </radialGradient>
    <radialGradient id="ambientB" cx="30%" cy="50%" r="50%">
      <stop offset="0%" stop-color="#536dfe" stop-opacity="0.05"/>
      <stop offset="100%" stop-color="#536dfe" stop-opacity="0"/>
    </radialGradient>
    <!-- Star glow -->
    <filter id="starG"><feGaussianBlur stdDeviation="1.2"/></filter>
    <!-- Lamp glow -->
    <radialGradient id="lampG" cx="50%" cy="50%" r="50%">
      <stop offset="0%" stop-color="#ffb347" stop-opacity="0.5"/>
      <stop offset="100%" stop-color="#ffb347" stop-opacity="0"/>
    </radialGradient>
  </defs>

  <!-- Sky -->
  <rect width="1440" height="600" fill="url(#bgGrad)"/>
  <rect width="1440" height="600" fill="url(#ambientR)"/>
  <rect width="1440" height="600" fill="url(#ambientB)"/>

  <!-- Stars -->
  <g opacity="0.5">
    <circle cx="100" cy="30" r="1" fill="#fff" filter="url(#starG)"/>
    <circle cx="250" cy="50" r="0.8" fill="#fff" filter="url(#starG)"/>
    <circle cx="400" cy="20" r="1.2" fill="#fff" filter="url(#starG)"/>
    <circle cx="620" cy="40" r="0.7" fill="#fff" filter="url(#starG)"/>
    <circle cx="850" cy="25" r="1" fill="#fff" filter="url(#starG)"/>
    <circle cx="1050" cy="45" r="0.9" fill="#fff" filter="url(#starG)"/>
    <circle cx="1250" cy="30" r="1.1" fill="#fff" filter="url(#starG)"/>
    <circle cx="1380" cy="55" r="0.8" fill="#fff" filter="url(#starG)"/>
    <circle cx="180" cy="65" r="0.6" fill="#fff" filter="url(#starG)"/>
    <circle cx="950" cy="15" r="0.9" fill="#fff" filter="url(#starG)"/>
  </g>

  <!-- ===== CITY SKYLINE SILHOUETTE ===== -->
  <g fill="#151330" opacity="0.4">
    <rect x="0" y="80" width="80" height="180" rx="2"/>
    <rect x="90" y="100" width="60" height="160" rx="2"/>
    <rect x="160" y="70" width="45" height="190" rx="2"/>
    <rect x="215" y="110" width="70" height="150" rx="2"/>
    <rect x="1200" y="75" width="50" height="185" rx="2"/>
    <rect x="1260" y="95" width="65" height="165" rx="2"/>
    <rect x="1340" y="85" width="55" height="175" rx="2"/>
    <rect x="1405" y="105" width="35" height="155" rx="2"/>
    <!-- Church dome silhouette -->
    <rect x="300" y="110" width="40" height="150"/>
    <ellipse cx="320" cy="110" rx="25" ry="18"/>
    <path d="M320 92 L320 75" stroke="#151330" stroke-width="3"/>
    <circle cx="320" cy="73" r="4"/>
  </g>

  <!-- ===== LEFT BUILDING ===== -->
  <g>
    <rect x="0" y="150" width="350" height="450" fill="#141230" rx="3"/>
    <!-- Windows -->
    <g fill="#1c1a3a" opacity="0.5">
      <rect x="20" y="180" width="28" height="35" rx="2"/>
      <rect x="60" y="180" width="28" height="35" rx="2"/>
      <rect x="100" y="180" width="28" height="35" rx="2"/>
      <rect x="140" y="180" width="28" height="35" rx="2"/>
      <rect x="180" y="180" width="28" height="35" rx="2"/>
      <rect x="220" y="180" width="28" height="35" rx="2"/>
      <rect x="260" y="180" width="28" height="35" rx="2"/>
      <rect x="300" y="180" width="28" height="35" rx="2"/>
      <rect x="20" y="230" width="28" height="35" rx="2"/>
      <rect x="60" y="230" width="28" height="35" rx="2"/>
      <rect x="100" y="230" width="28" height="35" rx="2"/>
      <rect x="140" y="230" width="28" height="35" rx="2"/>
      <rect x="180" y="230" width="28" height="35" rx="2"/>
      <rect x="220" y="230" width="28" height="35" rx="2"/>
      <rect x="260" y="230" width="28" height="35" rx="2"/>
      <rect x="300" y="230" width="28" height="35" rx="2"/>
    </g>
    <!-- Lit windows -->
    <rect x="60" y="180" width="28" height="35" rx="2" fill="#ffb347" opacity="0.15"/>
    <rect x="180" y="230" width="28" height="35" rx="2" fill="#ffe0b2" opacity="0.12"/>
    <rect x="300" y="180" width="28" height="35" rx="2" fill="#ffb347" opacity="0.1"/>
  </g>

  <!-- ===== RIGHT BUILDINGS ===== -->
  <g>
    <rect x="1050" y="140" width="390" height="460" fill="#161435" rx="3"/>
    <g fill="#1e1c3e" opacity="0.5">
      <rect x="1070" y="170" width="25" height="32" rx="2"/>
      <rect x="1110" y="170" width="25" height="32" rx="2"/>
      <rect x="1150" y="170" width="25" height="32" rx="2"/>
      <rect x="1190" y="170" width="25" height="32" rx="2"/>
      <rect x="1230" y="170" width="25" height="32" rx="2"/>
      <rect x="1270" y="170" width="25" height="32" rx="2"/>
      <rect x="1310" y="170" width="25" height="32" rx="2"/>
      <rect x="1350" y="170" width="25" height="32" rx="2"/>
      <rect x="1390" y="170" width="25" height="32" rx="2"/>
      <rect x="1070" y="216" width="25" height="32" rx="2"/>
      <rect x="1110" y="216" width="25" height="32" rx="2"/>
      <rect x="1150" y="216" width="25" height="32" rx="2"/>
      <rect x="1190" y="216" width="25" height="32" rx="2"/>
      <rect x="1230" y="216" width="25" height="32" rx="2"/>
      <rect x="1270" y="216" width="25" height="32" rx="2"/>
      <rect x="1310" y="216" width="25" height="32" rx="2"/>
      <rect x="1350" y="216" width="25" height="32" rx="2"/>
      <rect x="1390" y="216" width="25" height="32" rx="2"/>
    </g>
    <rect x="1150" y="170" width="25" height="32" rx="2" fill="#ffb347" opacity="0.14"/>
    <rect x="1350" y="216" width="25" height="32" rx="2" fill="#ffe0b2" opacity="0.1"/>
  </g>

  <!-- ===== THE STOREFRONT (center-right) ===== -->
  <g>
    <!-- Storefront building -->
    <rect x="650" y="200" width="360" height="400" fill="#181638" rx="4"/>
    <!-- Upper windows -->
    <g fill="#201e42" opacity="0.5">
      <rect x="670" y="220" width="30" height="38" rx="2"/>
      <rect x="715" y="220" width="30" height="38" rx="2"/>
      <rect x="760" y="220" width="30" height="38" rx="2"/>
      <rect x="805" y="220" width="30" height="38" rx="2"/>
      <rect x="850" y="220" width="30" height="38" rx="2"/>
      <rect x="895" y="220" width="30" height="38" rx="2"/>
      <rect x="940" y="220" width="30" height="38" rx="2"/>
      <rect x="670" y="275" width="30" height="38" rx="2"/>
      <rect x="715" y="275" width="30" height="38" rx="2"/>
      <rect x="760" y="275" width="30" height="38" rx="2"/>
      <rect x="805" y="275" width="30" height="38" rx="2"/>
      <rect x="850" y="275" width="30" height="38" rx="2"/>
      <rect x="895" y="275" width="30" height="38" rx="2"/>
      <rect x="940" y="275" width="30" height="38" rx="2"/>
    </g>
    <rect x="760" y="220" width="30" height="38" rx="2" fill="#ffb347" opacity="0.18"/>
    <rect x="895" y="275" width="30" height="38" rx="2" fill="#ffe0b2" opacity="0.12"/>

    <!-- Awning -->
    <path d="M645 340 L1015 340 L1020 330 L640 330 Z" fill="#2a1520" opacity="0.7"/>

    <!-- SIGN: "BARBERSHOP" with red highlight -->
    <g filter="url(#redGlowS)">
      <rect x="700" y="345" width="260" height="55" rx="8" fill="#1a0808" stroke="#ff4444" stroke-width="2.5"/>
      <text x="830" y="380" text-anchor="middle" fill="#ff4444" font-size="24" font-weight="800" letter-spacing="3">BARBERSHOP</text>
    </g>

    <!-- Barber pole -->
    <g>
      <rect x="668" y="345" width="12" height="55" rx="6" fill="#fff" opacity="0.15"/>
      <line x1="668" y1="355" x2="680" y2="365" stroke="#ff4444" stroke-width="3" opacity="0.5"/>
      <line x1="668" y1="365" x2="680" y2="375" stroke="#536dfe" stroke-width="3" opacity="0.5"/>
      <line x1="668" y1="375" x2="680" y2="385" stroke="#ff4444" stroke-width="3" opacity="0.5"/>
      <line x1="668" y1="385" x2="680" y2="395" stroke="#536dfe" stroke-width="3" opacity="0.5"/>
    </g>

    <!-- Shop window (large) -->
    <rect x="690" y="410" width="180" height="100" rx="4" fill="#0d1020" stroke="#2a2550" stroke-width="1.5"/>
    <!-- Items in window: chairs, bottles -->
    <rect x="710" y="470" width="25" height="35" rx="2" fill="#1a1838" opacity="0.6"/>
    <rect x="710" y="465" width="25" height="8" rx="4" fill="#1a1838" opacity="0.6"/>
    <rect x="750" y="478" width="8" height="25" rx="2" fill="#2a1540" opacity="0.5"/>
    <rect x="765" y="475" width="8" height="28" rx="2" fill="#15253a" opacity="0.5"/>
    <rect x="780" y="480" width="8" height="23" rx="2" fill="#2a2040" opacity="0.5"/>
    <ellipse cx="830" cy="480" rx="20" ry="15" fill="#151330" opacity="0.4"/>
    <!-- Window reflection -->
    <line x1="700" y1="415" x2="740" y2="505" stroke="#536dfe" stroke-width="0.5" opacity="0.15"/>
    <line x1="860" y1="415" x2="820" y2="505" stroke="#536dfe" stroke-width="0.5" opacity="0.15"/>

    <!-- Shop door -->
    <rect x="890" y="410" width="60" height="100" rx="4" fill="#0a0e18" stroke="#2a2550" stroke-width="1.5"/>
    <circle cx="940" cy="460" r="4" fill="#4a4570"/>
    <!-- Door handle -->
    <rect x="935" y="450" width="12" height="3" rx="1.5" fill="#4a4570"/>
    <!-- "OPEN" sign on door -->
    <rect x="905" y="425" width="30" height="14" rx="3" fill="#1a3020" stroke="#00e676" stroke-width="0.5" opacity="0.7"/>
    <text x="920" y="435" text-anchor="middle" fill="#00e676" font-size="7" opacity="0.8">OPEN</text>
  </g>

  <!-- ===== STREET ===== -->
  <rect x="0" y="510" width="1440" height="90" fill="url(#streetG)"/>
  <!-- Sidewalk -->
  <rect x="0" y="505" width="1440" height="8" fill="#1e1c3a" opacity="0.5"/>

  <!-- ===== STREET LAMP near storefront ===== -->
  <g>
    <rect x="640" y="320" width="5" height="185" fill="#2a2550" rx="2"/>
    <path d="M632 320 Q643 305 653 320" fill="#2a2550"/>
    <circle cx="643" cy="318" r="5" fill="#ffb347" opacity="0.8"/>
    <circle cx="643" cy="318" r="30" fill="url(#lampG)" opacity="0.5"/>
    <circle cx="643" cy="318" r="60" fill="url(#lampG)" opacity="0.2"/>
  </g>

  <!-- ===== INSPECTOR FIGURE ===== -->
  <g>
    <!-- Shadow on ground -->
    <ellipse cx="520" cy="505" rx="50" ry="8" fill="#0a0918" opacity="0.6"/>

    <!-- Legs -->
    <line x1="505" y1="460" x2="495" y2="503" stroke="#0f1828" stroke-width="10" stroke-linecap="round"/>
    <line x1="525" y1="460" x2="535" y2="503" stroke="#0f1828" stroke-width="10" stroke-linecap="round"/>
    <!-- Shoes -->
    <ellipse cx="493" cy="505" rx="12" ry="5" fill="#0a0e18"/>
    <ellipse cx="537" cy="505" rx="12" ry="5" fill="#0a0e18"/>

    <!-- Body / Coat -->
    <rect x="490" y="365" width="50" height="100" rx="8" fill="url(#coatGrad)"/>
    <!-- Coat details -->
    <line x1="515" y1="370" x2="515" y2="460" stroke="#253550" stroke-width="0.5" opacity="0.4"/>
    <!-- Belt -->
    <rect x="488" y="425" width="54" height="5" rx="2" fill="#253550"/>
    <rect x="512" y="423" width="8" height="9" rx="1" fill="#3a4a60"/>

    <!-- Shoulders -->
    <rect x="482" y="360" width="66" height="20" rx="8" fill="#1a2540"/>
    <!-- Epaulettes -->
    <rect x="482" y="358" width="15" height="8" rx="2" fill="#253550"/>
    <rect x="533" y="358" width="15" height="8" rx="2" fill="#253550"/>

    <!-- Head -->
    <circle cx="515" cy="340" r="22" fill="#d4a574"/>
    <!-- Cap -->
    <ellipse cx="515" cy="325" rx="25" ry="10" fill="#1a2540"/>
    <rect x="492" y="318" width="46" height="10" rx="3" fill="#1a2540"/>
    <!-- Cap visor -->
    <ellipse cx="515" cy="328" rx="28" ry="5" fill="#0f1828"/>
    <!-- Cap badge -->
    <circle cx="515" cy="321" r="4" fill="#ffd700" opacity="0.6"/>
    <!-- Face features -->
    <circle cx="506" cy="340" r="2" fill="#1a1a1a" opacity="0.6"/>
    <circle cx="524" cy="340" r="2" fill="#1a1a1a" opacity="0.6"/>
    <line x1="510" y1="350" x2="520" y2="350" stroke="#1a1a1a" stroke-width="1.5" stroke-linecap="round" opacity="0.4"/>
    <!-- Ears -->
    <ellipse cx="493" cy="340" rx="4" ry="6" fill="#c49565"/>
    <ellipse cx="537" cy="340" rx="4" ry="6" fill="#c49565"/>

    <!-- Left arm (pointing/gesturing) -->
    <line x1="482" y1="375" x2="455" y2="410" stroke="#1a2540" stroke-width="9" stroke-linecap="round"/>
    <circle cx="455" cy="412" r="7" fill="#d4a574"/>
    <!-- Index finger pointing -->
    <line x1="455" y1="412" x2="448" y2="405" stroke="#d4a574" stroke-width="3" stroke-linecap="round"/>

    <!-- Right arm (holding tablet) -->
    <line x1="548" y1="375" x2="570" y2="395" stroke="#1a2540" stroke-width="9" stroke-linecap="round"/>
    <circle cx="572" cy="397" r="6" fill="#d4a574"/>

    <!-- ===== TABLET IN HAND ===== -->
    <g>
      <rect x="560" y="370" width="80" height="110" rx="8" fill="#1a1a2e" stroke="#3a4a60" stroke-width="2"/>
      <!-- Screen -->
      <rect x="566" y="378" width="68" height="90" rx="4" fill="url(#screenGrad)"/>

      <!-- Checklist header -->
      <text x="600" y="393" text-anchor="middle" fill="#536dfe" font-size="8" font-weight="700">ПРОВЕРКА</text>
      <line x1="572" y1="398" x2="628" y2="398" stroke="#536dfe" stroke-width="0.5" opacity="0.4"/>

      <!-- Checklist item 1 - checked (green) -->
      <rect x="572" y="404" width="10" height="10" rx="2" fill="#0a2a0a" stroke="#00e676" stroke-width="1"/>
      <path d="M574 409 L576 412 L580 406" stroke="#00e676" stroke-width="1.5" fill="none" stroke-linecap="round"/>
      <text x="586" y="413" fill="#9e9e9e" font-size="6.5">Адрес объекта</text>

      <!-- Checklist item 2 - checked -->
      <rect x="572" y="419" width="10" height="10" rx="2" fill="#0a2a0a" stroke="#00e676" stroke-width="1"/>
      <path d="M574 424 L576 427 L580 421" stroke="#00e676" stroke-width="1.5" fill="none" stroke-linecap="round"/>
      <text x="586" y="428" fill="#9e9e9e" font-size="6.5">Фотофиксация</text>

      <!-- Checklist item 3 - unchecked (red) -->
      <rect x="572" y="434" width="10" height="10" rx="2" fill="#2a0a0a" stroke="#ff4444" stroke-width="1"/>
      <text x="586" y="443" fill="#ff8a80" font-size="6.5">Перевод на РУС</text>

      <!-- Checklist item 4 - unchecked -->
      <rect x="572" y="449" width="10" height="10" rx="2" fill="#2a0a0a" stroke="#ff4444" stroke-width="1"/>
      <text x="586" y="458" fill="#ff8a80" font-size="6.5">Протокол</text>

      <!-- Home button -->
      <circle cx="600" cy="474" r="3" fill="none" stroke="#3a4a60" stroke-width="1"/>
    </g>

    <!-- Badge/ID on chest -->
    <rect x="495" y="375" width="18" height="24" rx="2" fill="#ffd700" opacity="0.25"/>
    <text x="504" y="391" text-anchor="middle" fill="#ffd700" font-size="7" opacity="0.5">ID</text>
  </g>

  <!-- ===== CALENDAR CARD: "Март 2026" ===== -->
  <g filter="url(#cardGlow)">
    <rect x="60" y="200" width="200" height="140" rx="12" fill="#0f1225" stroke="#536dfe" stroke-width="1.5"/>
    <!-- Calendar header -->
    <rect x="60" y="200" width="200" height="35" rx="12" fill="#1a2550"/>
    <rect x="60" y="220" width="200" height="15" fill="#1a2550"/>
    <text x="160" y="223" text-anchor="middle" fill="#e0e0e0" font-size="14" font-weight="700">Март 2026</text>
    <!-- Calendar grid -->
    <g fill="#3a4a60" font-size="9" text-anchor="middle">
      <text x="82" y="256" fill="#757575">Пн</text>
      <text x="105" y="256" fill="#757575">Вт</text>
      <text x="128" y="256" fill="#757575">Ср</text>
      <text x="151" y="256" fill="#757575">Чт</text>
      <text x="174" y="256" fill="#757575">Пт</text>
      <text x="197" y="256" fill="#757575">Сб</text>
      <text x="220" y="256" fill="#757575">Вс</text>
    </g>
    <!-- Date numbers -->
    <g font-size="10" text-anchor="middle" fill="#9e9e9e">
      <text x="197" y="272">1</text>
      <text x="220" y="272">2</text>
      <text x="82" y="287">3</text>
      <text x="105" y="287">4</text>
      <text x="128" y="287">5</text>
      <text x="151" y="287">6</text>
      <text x="174" y="287">7</text>
      <text x="197" y="287">8</text>
      <text x="220" y="287">9</text>
      <text x="82" y="302">10</text>
      <text x="105" y="302">11</text>
      <text x="128" y="302">12</text>
      <text x="151" y="302">13</text>
      <text x="174" y="302">14</text>
      <text x="197" y="302">15</text>
      <text x="220" y="302">16</text>
    </g>
    <!-- March 1st highlighted (law start) -->
    <circle cx="197" cy="269" r="10" fill="#ff4444" opacity="0.25"/>
    <text x="197" y="272" text-anchor="middle" fill="#ff4444" font-size="10" font-weight="700">1</text>
    <!-- Dashed line to storefront -->
    <line x1="260" y1="280" x2="450" y2="360" stroke="#536dfe" stroke-width="1" stroke-dasharray="5 5" opacity="0.35"/>
  </g>

  <!-- ===== DOCUMENT / PROTOCOL ICON ===== -->
  <g filter="url(#cardGlow)">
    <rect x="100" y="380" width="160" height="100" rx="10" fill="#0f1225" stroke="#536dfe" stroke-width="1"/>
    <!-- Document icon -->
    <rect x="120" y="400" width="35" height="45" rx="3" fill="#1a2540" stroke="#3a4a60" stroke-width="1"/>
    <path d="M140 400 L155 415 L155 400 Z" fill="#253550"/>
    <line x1="127" y1="415" x2="148" y2="415" stroke="#3a4a60" stroke-width="1" opacity="0.5"/>
    <line x1="127" y1="422" x2="148" y2="422" stroke="#3a4a60" stroke-width="1" opacity="0.5"/>
    <line x1="127" y1="429" x2="142" y2="429" stroke="#3a4a60" stroke-width="1" opacity="0.5"/>
    <line x1="127" y1="436" x2="145" y2="436" stroke="#3a4a60" stroke-width="1" opacity="0.5"/>
    <!-- Text -->
    <text x="167" y="420" fill="#e0e0e0" font-size="10" font-weight="600">Протокол</text>
    <text x="167" y="436" fill="#ff8a80" font-size="9">об АП</text>
    <text x="167" y="455" fill="#757575" font-size="8">ст. 14.61 КоАП</text>
    <!-- Dashed line -->
    <line x1="260" y1="430" x2="450" y2="420" stroke="#536dfe" stroke-width="1" stroke-dasharray="5 5" opacity="0.3"/>
  </g>

  <!-- ===== FINES SCALE ===== -->
  <g filter="url(#warnGlow)">
    <rect x="60" y="510" width="320" height="65" rx="12" fill="#1a1020" stroke="#ff9800" stroke-width="1.5"/>
    <!-- Scale bar -->
    <rect x="85" y="540" width="270" height="8" rx="4" fill="#2a1a0a"/>
    <!-- Gradient fill on scale -->
    <rect x="85" y="540" width="270" height="8" rx="4" fill="#ff9800" opacity="0.3"/>
    <!-- Min marker -->
    <circle cx="85" cy="544" r="6" fill="#ffb347"/>
    <text x="85" y="530" text-anchor="middle" fill="#ffb347" font-size="10" font-weight="700">50 000&#x20BD;</text>
    <!-- Mid marker -->
    <circle cx="220" cy="544" r="5" fill="#ff9800"/>
    <text x="220" y="530" text-anchor="middle" fill="#ff9800" font-size="10" font-weight="700">200 000&#x20BD;</text>
    <!-- Max marker -->
    <circle cx="355" cy="544" r="6" fill="#ff5722"/>
    <text x="355" y="530" text-anchor="middle" fill="#ff5722" font-size="10" font-weight="700">500 000&#x20BD;</text>
    <!-- Label -->
    <text x="220" y="565" text-anchor="middle" fill="#bdbdbd" font-size="9">Шкала штрафов для юридических лиц</text>
  </g>

  <!-- ===== FLOATING INFO CARD 1 (top-right) ===== -->
  <g filter="url(#cardGlow)">
    <rect x="1100" y="300" width="300" height="65" rx="12" fill="#0f1225" stroke="#536dfe" stroke-width="1.5"/>
    <!-- Clock icon -->
    <circle cx="1130" cy="332" r="14" fill="#536dfe" opacity="0.15"/>
    <circle cx="1130" cy="332" r="10" fill="none" stroke="#536dfe" stroke-width="1.5"/>
    <line x1="1130" y1="326" x2="1130" y2="332" stroke="#536dfe" stroke-width="1.5" stroke-linecap="round"/>
    <line x1="1130" y1="332" x2="1136" y2="335" stroke="#536dfe" stroke-width="1.5" stroke-linecap="round"/>
    <!-- Text -->
    <text x="1155" y="326" fill="#e0e0e0" font-size="12" font-weight="700">Переходный период</text>
    <text x="1155" y="345" fill="#82b1ff" font-size="11">до июня 2026</text>
    <!-- Dashed line to inspector -->
    <line x1="1100" y1="340" x2="640" y2="380" stroke="#536dfe" stroke-width="1" stroke-dasharray="5 5" opacity="0.3"/>
  </g>

  <!-- ===== FLOATING INFO CARD 2 (right-bottom) ===== -->
  <g filter="url(#cardGlow)">
    <rect x="1100" y="400" width="300" height="65" rx="12" fill="#0f1225" stroke="#00e676" stroke-width="1.5"/>
    <!-- Shield icon -->
    <g>
      <path d="M1122 420 L1130 416 L1138 420 L1138 434 Q1130 440 1122 434 Z" fill="#00e676" opacity="0.15" stroke="#00e676" stroke-width="1"/>
      <path d="M1127 428 L1130 432 L1135 424" fill="none" stroke="#00e676" stroke-width="1.5" stroke-linecap="round"/>
    </g>
    <!-- Text -->
    <text x="1155" y="427" fill="#e0e0e0" font-size="12" font-weight="700">Первое нарушение</text>
    <text x="1155" y="446" fill="#a5d6a7" font-size="11">&#x2192; предупреждение</text>
    <!-- Dashed line -->
    <line x1="1100" y1="435" x2="640" y2="440" stroke="#00e676" stroke-width="1" stroke-dasharray="5 5" opacity="0.25"/>
  </g>

  <!-- ===== ADDITIONAL ATMOSPHERE: more pedestrians ===== -->
  <!-- Person far right -->
  <g fill="#151330" opacity="0.3">
    <circle cx="1060" cy="475" r="6"/>
    <rect x="1056" y="481" width="8" height="15" rx="3"/>
    <line x1="1057" y1="496" x2="1054" y2="507" stroke="#151330" stroke-width="2" stroke-linecap="round"/>
    <line x1="1063" y1="496" x2="1066" y2="507" stroke="#151330" stroke-width="2" stroke-linecap="round"/>
  </g>
  <!-- Person far left -->
  <g fill="#151330" opacity="0.25">
    <circle cx="380" cy="478" r="5"/>
    <rect x="377" y="483" width="6" height="13" rx="2"/>
    <line x1="378" y1="496" x2="376" y2="505" stroke="#151330" stroke-width="1.5" stroke-linecap="round"/>
    <line x1="382" y1="496" x2="384" y2="505" stroke="#151330" stroke-width="1.5" stroke-linecap="round"/>
  </g>

  <!-- ===== X mark above BARBERSHOP sign ===== -->
  <g opacity="0.7">
    <circle cx="830" cy="328" r="12" fill="#ff4444" opacity="0.2"/>
    <line x1="823" y1="321" x2="837" y2="335" stroke="#ff4444" stroke-width="2.5" stroke-linecap="round"/>
    <line x1="837" y1="321" x2="823" y2="335" stroke="#ff4444" stroke-width="2.5" stroke-linecap="round"/>
  </g>
</svg>